<svg height="24" viewBox="0 0 24 24" width="24" xmlns="http://www.w3.org/2000/svg"><g fill="none"><path d="m0 0h24v24h-24z"/><path d="m10.077 2.61445c.337725-.7597435 1.3789488-.7977397 1.7869379-.11396288l.0589621.11396288 1.042 2.3444c.9109895 2.04965053 2.4253729 3.76904543 4.3367897 4.93133275l.3222103.18851725 1.8508 1.041c.6483611.3647444.6843812 1.2665472.1080602 1.6908806l-.1080602.0697194-1.8508 1.0411c-1.9548947 1.0996105-3.5242205 2.7690482-4.5016168 4.781291l-.1573832.338509-1.042 2.3444c-.33763.759715-1.378849.7977008-1.7869236.1139572l-.0589764-.1139572-1.04193-2.3444c-.91095158-2.0496316-2.42538681-3.7690704-4.33683471-4.9312943l-.32221529-.1885057-1.85081-1.0411c-.64830444-.36465-.68433028-1.2664475-.10805223-1.6908648l.10805223-.0697352 1.85081-1.041c1.95492316-1.09968632 3.52430427-2.7690831 4.50167233-4.7813384l.15737767-.3385116zm.923 2.84779c-1.24423 2.79945-3.28579 5.03336-5.96029 6.53776 2.6745 1.5044 4.71606 3.7384 5.96029 6.5378 1.2475-2.807 3.29-5.0357 5.9602-6.5378-2.6745-1.5044-4.716-3.73831-5.9602-6.53776zm8.2205-3.34118c.4985 1.1218 1.3398 2.06913 2.4142 2.67348.1602.09013.1602.32082 0 .41095-1.0744.60435-1.9157 1.55169-2.4142 2.67348-.0849.19103-.3561.19103-.441 0-.4985-1.1218-1.3398-2.06913-2.4142-2.67348-.1602-.09013-.1602-.32082 0-.41095 1.0744-.60434 1.9157-1.55168 2.4142-2.67348.0849-.19103.3561-.19103.441 0z" fill="#09244b"/></g></svg>